<svg width="42" height="42" viewBox="0 0 42 42" fill="none" xmlns="http://www.w3.org/2000/svg">
<path d="M16.4706 14.5532C15.0862 13.7524 13.479 13.2941 11.7647 13.2941C6.5667 13.2941 2.35291 17.5079 2.35291 22.7059C2.35291 27.9039 6.5667 32.1176 11.7647 32.1176C13.479 32.1176 15.0862 31.6593 16.4706 30.8585M40 22.7059C40 27.9039 35.7862 32.1176 30.5882 32.1176C25.3902 32.1176 21.1764 27.9039 21.1764 22.7059C21.1764 17.5079 25.3902 13.2941 30.5882 13.2941C35.7862 13.2941 40 17.5079 40 22.7059Z" stroke="#0F172A" stroke-width="3.76471"/>
<path d="M20.2353 6.40061C17.4666 4.79901 14.2521 3.88235 10.8235 3.88235C7.39492 3.88235 4.18043 4.79901 1.41174 6.40061" stroke="#0F172A" stroke-width="3.76471"/>
</svg>
