<svg width="42" height="42" viewBox="0 0 42 42" fill="none" xmlns="http://www.w3.org/2000/svg">
<path d="M30.8213 24.4222C29.1682 24.4222 27.6209 23.7216 26.2131 22.5809L26.5558 20.9714L26.5709 20.9126C26.8767 19.199 27.8444 16.3212 30.8213 16.3212C33.0541 16.3212 34.8701 18.1406 34.8701 20.375C34.8634 22.6027 33.0473 24.4222 30.8213 24.4222ZM30.8213 12.2136C27.0178 12.2136 24.0694 14.6882 22.8716 18.7572C21.0404 16.007 19.6561 12.7058 18.8446 9.92544H14.7521V20.5901C14.7521 22.6918 13.0402 24.4054 10.9402 24.4054C8.84021 24.4054 7.12997 22.6918 7.12997 20.5901V9.92544H3.03581V20.5901C3.02069 24.9581 6.57221 28.5432 10.9335 28.5432C15.2948 28.5432 18.8463 24.9581 18.8463 20.5901V18.8009C19.6426 20.4624 20.617 22.139 21.8014 23.6309L19.2932 35.4362H23.4848L25.3009 26.8733C26.8935 27.8947 28.7247 28.5348 30.8247 28.5348C35.3137 28.5348 38.9677 24.8522 38.9677 20.3582C38.9643 15.8726 35.3103 12.2136 30.8213 12.2136Z" fill="#0F172A"/>
</svg>
