<svg width="42" height="29" viewBox="0 0 42 29" fill="none" xmlns="http://www.w3.org/2000/svg">
<path d="M15.4991 9.35168C15.4991 11.3431 14.7962 13.0441 13.3903 14.4545C11.9845 15.865 10.2954 16.5684 8.32306 16.5684C6.35071 16.5684 4.66162 15.865 3.25579 14.4545C1.84996 13.0441 1.14704 11.3431 1.14704 9.35168V-4.17218e-10H0V9.35518C0 11.5601 0.748376 13.4605 2.24863 15.053C3.74538 16.6454 5.79817 17.5169 7.82298 17.6604V29H8.88959V17.6604C10.9878 17.5169 12.9567 16.5859 14.401 15.053C15.8978 13.4605 16.6461 11.5601 16.6461 9.35168V-4.17218e-10H15.4991V9.35168ZM37.1076 25.6401C35.7822 24.2577 35.1212 22.5987 35.1212 20.6598C35.1212 18.3814 34.3029 16.4214 32.6663 14.78C31.0296 13.142 29.0643 12.3231 26.7702 12.3231C24.4761 12.3231 22.5107 13.142 20.8741 14.78C19.2375 16.4179 18.4157 18.3849 18.4192 20.6808C18.4192 22.9767 19.2375 24.9366 20.8741 26.5606C22.5107 28.1845 24.4691 28.9965 26.7492 28.9965C28.5152 28.9965 30.0959 28.5065 31.4913 27.523C32.8866 26.5396 33.8973 25.2656 34.5232 23.6977C35.1212 25.2376 36.0969 26.4906 37.4503 27.4601C38.8037 28.4295 40.3179 28.944 42 29V27.845C40.0626 27.754 38.433 27.0226 37.1076 25.6401ZM19.5697 20.6563C19.5697 16.6909 22.7835 13.4745 26.7457 13.4745C27.7144 13.4675 28.6761 13.667 29.5644 14.052C30.4456 14.437 31.208 14.9515 31.8515 15.592C32.4914 16.2324 33.0055 16.9954 33.3902 17.8809C33.7714 18.7559 33.9707 19.7043 33.9672 20.6598C33.9672 22.6547 33.2608 24.3522 31.8515 25.7486C30.4421 27.1451 28.746 27.845 26.7667 27.845C24.7873 27.845 23.0913 27.1451 21.6819 25.7486C20.2726 24.3487 19.5697 22.6547 19.5697 20.6563Z" fill="#0F172A"/>
<ellipse cx="23.814" cy="17.3963" rx="1.28724" ry="1.28861" fill="#0F172A"/>
<ellipse cx="10.9415" cy="9.02028" rx="1.28724" ry="1.28861" fill="#0F172A"/>
<ellipse cx="7.07984" cy="7.73167" rx="1.28724" ry="1.28861" fill="#0F172A"/>
<ellipse cx="27.0321" cy="18.6849" rx="1.28724" ry="1.28861" fill="#0F172A"/>
</svg>
