<svg width="40" height="40" viewBox="0 0 40 40" fill="none" xmlns="http://www.w3.org/2000/svg">
<path d="M15.6866 13.8603C14.3682 13.0976 12.8375 12.6611 11.2048 12.6611C6.25434 12.6611 2.24121 16.6743 2.24121 21.6248C2.24121 26.5752 6.25434 30.5883 11.2048 30.5883C12.8375 30.5883 14.3682 30.1518 15.6866 29.3891M38.0956 21.6248C38.0956 26.5752 34.0824 30.5883 29.132 30.5883C24.1815 30.5883 20.1683 26.5752 20.1683 21.6248C20.1683 16.6743 24.1815 12.6611 29.132 12.6611C34.0824 12.6611 38.0956 16.6743 38.0956 21.6248Z" stroke="#0F172A" stroke-width="3.76471"/>
<path d="M19.2719 6.09585C16.6351 4.57052 13.5736 3.69751 10.3083 3.69751C7.04299 3.69751 3.98157 4.57052 1.34473 6.09585" stroke="#0F172A" stroke-width="3.76471"/>
</svg>
