<svg width="40" height="40" viewBox="0 0 40 40" fill="none" xmlns="http://www.w3.org/2000/svg">
<path d="M36.07 9.17732H23.5827C21.8272 9.17732 19.6394 10.0957 18.7209 11.2183L16.5683 13.8612H20.6508C22.4062 13.8612 23.0912 14.7795 22.1727 15.9021L19.2375 19.7339C18.3188 20.8565 16.131 21.7749 14.3755 21.7749H10.1226L4.78409 28.3292C3.86563 29.4518 4.55046 30.3704 6.30609 30.3704H18.7933C20.5489 30.3704 22.7368 29.4518 23.6552 28.3292L37.592 11.2183C38.5105 10.0957 37.8257 9.17732 36.07 9.17732Z" fill="#0F172A"/>
<path d="M10.2053 13.8612C8.44986 13.8612 6.26202 14.7796 5.3434 15.9022L2.40812 19.7339C1.48965 20.8565 2.17448 21.7749 3.93011 21.7749H10.1216L16.5672 13.8612H10.2053Z" fill="#0F172A"/>
</svg>
