<svg width="40" height="40" viewBox="0 0 40 40" fill="none" xmlns="http://www.w3.org/2000/svg">
<g clip-path="url(#clip0_186_15778)">
<path d="M20.9463 25.3145C20.9463 26.1977 21.6651 26.9166 22.5485 26.9166C23.4317 26.9166 24.1498 26.1977 24.1498 25.3145V23.665H20.9463V25.3145Z" fill="#0F172A"/>
<path d="M5 35H35V5H5V35ZM27.5891 25.3145C27.5891 28.0947 25.3275 30.3555 22.5473 30.3555C19.768 30.3555 17.5063 28.0947 17.5063 25.3145V23.6652H12.5688V20.2255H17.5063V18.2293L11.3525 12.0746L13.7851 9.64288L19.2257 15.0844L24.6445 9.66648L27.0763 12.0982L20.946 18.2293V20.2255H27.5891V25.3145Z" fill="#0F172A"/>
</g>
<defs>
<clipPath id="clip0_186_15778">
<rect width="30" height="30" fill="white" transform="translate(5 5)"/>
</clipPath>
</defs>
</svg>
