<svg width="40" height="40" viewBox="0 0 40 40" fill="none" xmlns="http://www.w3.org/2000/svg">
<path d="M20.1328 30C18.5498 30 17.1799 29.7565 16.0232 29.2694C14.8664 28.7823 13.9662 28.0648 13.3226 27.1168C12.6877 26.16 12.3571 24.9902 12.3311 23.6073H16.2058C16.2406 24.2683 16.4276 24.8293 16.7668 25.2903C17.106 25.7426 17.5626 26.0861 18.1367 26.3209C18.7107 26.5471 19.3674 26.6601 20.1067 26.6601C20.8199 26.6601 21.4417 26.5558 21.9723 26.347C22.5115 26.1383 22.929 25.8469 23.2247 25.4729C23.5204 25.0989 23.6683 24.6684 23.6683 24.1813C23.6683 23.7378 23.5378 23.3638 23.2769 23.0594C23.0247 22.7549 22.6463 22.494 22.1419 22.2766C21.6461 22.0591 21.0286 21.8678 20.2893 21.7025L18.1758 21.1807C16.4711 20.7806 15.1491 20.15 14.2097 19.289C13.2791 18.4192 12.8138 17.2798 12.8138 15.8708C12.8138 14.6967 13.1269 13.6704 13.7531 12.7919C14.388 11.9135 15.2534 11.2307 16.3493 10.7436C17.4539 10.2479 18.7194 10 20.1458 10C21.5896 10 22.8464 10.2479 23.9162 10.7436C24.9947 11.2394 25.834 11.9309 26.4341 12.818C27.0343 13.7052 27.3474 14.7358 27.3735 15.91H23.5378C23.4683 15.1011 23.1291 14.4705 22.5202 14.0183C21.9201 13.566 21.1199 13.3399 20.1197 13.3399C19.45 13.3399 18.8716 13.4399 18.3845 13.6399C17.8975 13.8313 17.5235 14.1009 17.2626 14.4488C17.0103 14.788 16.8842 15.1794 16.8842 15.623C16.8842 16.0839 17.019 16.471 17.2887 16.7841C17.567 17.0885 17.9453 17.3451 18.4237 17.5538C18.9107 17.7539 19.4543 17.9235 20.0545 18.0626L21.8288 18.4932C22.6898 18.6845 23.477 18.9411 24.1902 19.2629C24.9121 19.576 25.5339 19.9587 26.0558 20.411C26.5776 20.8632 26.9777 21.3981 27.256 22.0157C27.5344 22.6332 27.6735 23.3377 27.6735 24.1292C27.6735 25.3207 27.3735 26.3601 26.7733 27.2472C26.1732 28.1257 25.3121 28.8041 24.1902 29.2825C23.0682 29.7608 21.7157 30 20.1328 30Z" fill="#0F172A"/>
</svg>
