<svg width="40" height="40" viewBox="0 0 40 40" fill="none" xmlns="http://www.w3.org/2000/svg">
<path d="M29.2397 22.6383C27.6845 22.6383 26.2288 21.9791 24.9044 20.906L25.2268 19.3918L25.241 19.3365C25.5287 17.7244 26.4391 15.017 29.2397 15.017C31.3402 15.017 33.0487 16.7287 33.0487 18.8307C33.0424 20.9265 31.3338 22.6383 29.2397 22.6383ZM29.2397 11.1527C25.6614 11.1527 22.8876 13.4807 21.7608 17.3087C20.038 14.7214 18.7357 11.6157 17.9722 9H14.1221V19.0331C14.1221 21.0103 12.5116 22.6224 10.5359 22.6224C8.56032 22.6224 6.95136 21.0103 6.95136 19.0331V9H3.09965V19.0331C3.08543 23.1424 6.42663 26.5152 10.5296 26.5152C14.6327 26.5152 17.9738 23.1424 17.9738 19.0331V17.3499C18.723 18.913 19.6397 20.4903 20.7539 21.8938L18.3943 33H22.3376L24.0462 24.9442C25.5445 25.9051 27.2672 26.5073 29.2429 26.5073C33.466 26.5073 36.9036 23.0428 36.9036 18.8149C36.9004 14.595 33.4628 11.1527 29.2397 11.1527Z" fill="#0F172A"/>
</svg>
