<svg width="40" height="40" viewBox="0 0 40 40" fill="none" xmlns="http://www.w3.org/2000/svg">
<path d="M15.4994 14.8786C15.4994 16.5079 14.9243 17.8997 13.774 19.0536C12.6238 20.2077 11.2418 20.7832 9.62805 20.7832C8.01431 20.7832 6.63232 20.2077 5.4821 19.0536C4.33187 17.8997 3.75676 16.5079 3.75676 14.8786V7.22721H2.81827V14.8814C2.81827 16.6855 3.43058 18.2403 4.65806 19.5433C5.88267 20.8462 7.56223 21.5592 9.21889 21.6766V30.9545H10.0916V21.6766C11.8083 21.5592 13.4192 20.7975 14.6009 19.5433C15.8256 18.2403 16.4378 16.6855 16.4378 14.8786V7.22721H15.4994V14.8786ZM33.179 28.2055C32.0946 27.0744 31.5538 25.7171 31.5538 24.1307C31.5538 22.2665 30.8843 20.6629 29.5452 19.3199C28.2061 17.9798 26.5982 17.3097 24.7212 17.3097C22.8442 17.3097 21.2361 17.9798 19.8971 19.3199C18.558 20.66 17.8857 22.2694 17.8885 24.1479C17.8885 26.0263 18.558 27.6299 19.8971 28.9586C21.2361 30.2873 22.8384 30.9516 24.704 30.9516C26.1489 30.9516 27.4422 30.5507 28.5839 29.746C29.7255 28.9414 30.5524 27.8991 31.0645 26.6162C31.5538 27.8762 32.3521 28.9013 33.4594 29.6946C34.5668 30.4877 35.8056 30.9087 37.1819 30.9545V30.0095C35.5968 29.935 34.2635 29.3366 33.179 28.2055ZM18.8298 24.1278C18.8298 20.8834 21.4593 18.2518 24.7011 18.2518C25.4937 18.2461 26.2805 18.4093 27.0073 18.7243C27.7283 19.0393 28.3521 19.4603 28.8786 19.9843C29.4021 20.5083 29.8228 21.1325 30.1375 21.857C30.4494 22.5729 30.6125 23.3489 30.6096 24.1307C30.6096 25.7629 30.0317 27.1517 28.8786 28.2942C27.7254 29.4368 26.3377 30.0095 24.7183 30.0095C23.0988 30.0095 21.7112 29.4368 20.558 28.2942C19.4049 27.1489 18.8298 25.7629 18.8298 24.1278Z" fill="#0F172A"/>
<path fill-rule="evenodd" clip-rule="evenodd" d="M13.4842 18.7648C14.5581 17.6875 15.0903 16.3997 15.0903 14.8786V6.81812H16.8469V14.8786C16.8469 16.7884 16.1958 18.4438 14.899 19.8235C13.7345 21.0594 12.1764 21.8445 10.5007 22.0485V31.3636H8.8098V22.0479C7.18506 21.8484 5.56702 21.1077 4.35997 19.8235C3.06036 18.4438 2.40918 16.7884 2.40918 14.8814V6.81812H4.16585V14.8786C4.16585 16.3997 4.69805 17.6875 5.77184 18.7648C6.84595 19.8425 8.12394 20.3741 9.62805 20.3741C11.1321 20.3741 12.4102 19.8425 13.4842 18.7648ZM9.21889 21.6766V30.9545H10.0916V21.6766C11.8083 21.5592 13.4192 20.7975 14.6009 19.5433C15.8256 18.2403 16.4378 16.6855 16.4378 14.8786V7.22721H15.4994V14.8786C15.4994 16.5079 14.9243 17.8997 13.774 19.0536C12.6238 20.2077 11.2418 20.7832 9.62805 20.7832C8.01431 20.7832 6.63232 20.2077 5.4821 19.0536C4.33187 17.8997 3.75676 16.5079 3.75676 14.8786V7.22721H2.81827V14.8814C2.81827 16.6855 3.43058 18.2403 4.65806 19.5433C5.88267 20.8462 7.56223 21.5592 9.21889 21.6766ZM33.4743 27.9224C34.4847 28.9763 35.7185 29.5312 37.2011 29.6008L37.591 29.6192V31.3774L37.1683 31.3633C35.7117 31.3148 34.3946 30.8676 33.2212 30.0271C32.3002 29.3674 31.5789 28.5531 31.0606 27.5863C30.5213 28.5764 29.773 29.4084 28.8196 30.0804C27.6062 30.9356 26.2299 31.3607 24.704 31.3607C22.7292 31.3607 21.0236 30.6527 19.6089 29.249L19.8971 28.9586C21.2361 30.2873 22.8384 30.9516 24.704 30.9516C26.1489 30.9516 27.4422 30.5507 28.5839 29.746C29.569 29.0517 30.3199 28.1803 30.8362 27.1301C30.9183 26.9633 30.9943 26.792 31.0645 26.6162C31.1331 26.7927 31.2077 26.9646 31.2883 27.1319C31.7835 28.1588 32.5072 29.0125 33.4594 29.6946C34.4559 30.4083 35.559 30.8207 36.7728 30.9295C36.9078 30.9415 37.0442 30.9499 37.1819 30.9545V30.0095C35.5968 29.935 34.2635 29.3366 33.179 28.2055C32.0946 27.0744 31.5538 25.7171 31.5538 24.1307C31.5538 22.2665 30.8843 20.6629 29.5452 19.3199C28.2061 17.9798 26.5982 17.3097 24.7212 17.3097C22.8442 17.3097 21.2361 17.9798 19.8971 19.3199C18.558 20.66 17.8857 22.2694 17.8885 24.1479C17.8885 26.0263 18.558 27.6299 19.8971 28.9586L19.6089 29.249C18.1929 27.8438 17.4794 26.1359 17.4794 24.1479M17.4794 24.1479C17.4766 22.1593 18.1932 20.4464 19.6077 19.0308C21.0227 17.6146 22.7345 16.9007 24.7212 16.9007C26.7078 16.9007 28.4196 17.6146 29.8346 19.0308C31.2486 20.4489 31.9629 22.1562 31.9629 24.1307C31.9629 25.6132 32.4641 26.8686 33.4743 27.9224M24.7041 18.6609L24.7011 18.6609C21.6856 18.6609 19.2389 21.109 19.2389 24.1278C19.2389 25.6544 19.7709 26.9356 20.8459 28.0036C21.9228 29.0706 23.2071 29.6004 24.7183 29.6004C26.2294 29.6004 27.5138 29.0706 28.5907 28.0036C29.6658 26.9383 30.2005 25.6543 30.2005 24.1307V24.1292C30.2032 23.4051 30.0521 22.6852 29.7625 22.0204C29.4671 21.3405 29.0747 20.7595 28.5897 20.2739C28.1012 19.7878 27.5207 19.3951 26.8443 19.0995C26.1689 18.8068 25.4385 18.6556 24.7041 18.6609ZM28.8786 19.9843C28.3521 19.4603 27.7283 19.0393 27.0073 18.7243C26.2805 18.4093 25.4937 18.2461 24.7011 18.2518C21.4593 18.2518 18.8298 20.8834 18.8298 24.1278C18.8298 25.7629 19.4049 27.1489 20.558 28.2942C21.7112 29.4368 23.0988 30.0095 24.7183 30.0095C26.3377 30.0095 27.7254 29.4368 28.8786 28.2942C30.0317 27.1517 30.6096 25.7629 30.6096 24.1307C30.6125 23.3489 30.4494 22.5729 30.1375 21.857C29.8228 21.1325 29.4021 20.5083 28.8786 19.9843Z" fill="#0F172A"/>
<path d="M22.3021 22.515C22.8838 22.515 23.3553 22.043 23.3553 21.4607C23.3553 20.8784 22.8838 20.4064 22.3021 20.4064C21.7205 20.4064 21.2489 20.8784 21.2489 21.4607C21.2489 22.043 21.7205 22.515 22.3021 22.515Z" fill="#0F172A"/>
<path d="M11.7702 15.6618C12.3519 15.6618 12.8234 15.1897 12.8234 14.6075C12.8234 14.0252 12.3519 13.5531 11.7702 13.5531C11.1885 13.5531 10.717 14.0252 10.717 14.6075C10.717 15.1897 11.1885 15.6618 11.7702 15.6618Z" fill="#0F172A"/>
<path d="M8.61141 14.6075C9.19307 14.6075 9.6646 14.1355 9.6646 13.5532C9.6646 12.9709 9.19307 12.4989 8.61141 12.4989C8.02974 12.4989 7.55821 12.9709 7.55821 13.5532C7.55821 14.1355 8.02974 14.6075 8.61141 14.6075Z" fill="#0F172A"/>
<path d="M24.9353 23.5693C25.517 23.5693 25.9885 23.0973 25.9885 22.515C25.9885 21.9327 25.517 21.4607 24.9353 21.4607C24.3537 21.4607 23.8821 21.9327 23.8821 22.515C23.8821 23.0973 24.3537 23.5693 24.9353 23.5693Z" fill="#0F172A"/>
</svg>
